<mxfile host="app.diagrams.net" modified="2022-03-02T11:32:23.182Z" agent="5.0 (Windows NT 10.0; Win64; x64) AppleWebKit/537.36 (KHTML, like Gecko) Chrome/98.0.4758.102 Safari/537.36" etag="c8ggM9UH5OBIjNehMc_9" version="16.6.4" type="github" pages="3">
  <diagram id="FiaBwvFlQ11jIYUknNrv" name="Use case">
    <mxGraphModel dx="782" dy="460" grid="1" gridSize="10" guides="1" tooltips="1" connect="1" arrows="1" fold="1" page="1" pageScale="1" pageWidth="850" pageHeight="1100" math="0" shadow="0">
      <root>
        <mxCell id="0" />
        <mxCell id="1" parent="0" />
      </root>
    </mxGraphModel>
  </diagram>
  <diagram id="c6qQLEslyFfiO2-XNqps" name="UIs">
    <mxGraphModel dx="782" dy="460" grid="1" gridSize="10" guides="1" tooltips="1" connect="1" arrows="1" fold="1" page="1" pageScale="1" pageWidth="827" pageHeight="1169" math="0" shadow="0">
      <root>
        <mxCell id="03HWlKMF4BJFkgaKUyuZ-0" />
        <mxCell id="03HWlKMF4BJFkgaKUyuZ-1" parent="03HWlKMF4BJFkgaKUyuZ-0" />
      </root>
    </mxGraphModel>
  </diagram>
  <diagram id="wuYFoP-q9y_38PqE9cSD" name="Problem Domain Classes">
    <mxGraphModel dx="782" dy="460" grid="1" gridSize="10" guides="1" tooltips="1" connect="1" arrows="1" fold="1" page="1" pageScale="1" pageWidth="827" pageHeight="1169" math="0" shadow="0">
      <root>
        <mxCell id="sEJaP63ClkLMVQbzM1hd-0" />
        <mxCell id="sEJaP63ClkLMVQbzM1hd-1" parent="sEJaP63ClkLMVQbzM1hd-0" />
      </root>
    </mxGraphModel>
  </diagram>
</mxfile>
